<svg xmlns="http://www.w3.org/2000/svg" version="1.1" xmlns:xlink="http://www.w3.org/1999/xlink" xmlns:svgjs="http://svgjs.dev/svgjs" width="1000" height="623" viewBox="0 0 1000 623"><g transform="matrix(1,0,0,1,-0.6060606060606233,0.2522267206477409)"><svg viewBox="0 0 396 247" data-background-color="#000000" preserveAspectRatio="xMidYMid meet" height="623" width="1000" xmlns="http://www.w3.org/2000/svg" xmlns:xlink="http://www.w3.org/1999/xlink"><g id="tight-bounds" transform="matrix(1,0,0,1,0.2400000000000091,-0.09999999999999432)"><svg viewBox="0 0 395.52 247.2" height="247.2" width="395.52"><g><svg></svg></g><g><svg viewBox="0 0 395.52 247.2" height="247.2" width="395.52"><g transform="matrix(1,0,0,1,75.54432,79.26641123544874)"><svg viewBox="0 0 244.43135999999998 88.66717752910252" height="88.66717752910252" width="244.43135999999998"><g><svg viewBox="0 0 244.43135999999998 88.66717752910252" height="88.66717752910252" width="244.43135999999998"><g><svg viewBox="0 0 244.43135999999998 88.66717752910252" height="88.66717752910252" width="244.43135999999998"><g><svg viewBox="0 0 244.43135999999998 88.66717752910252" height="88.66717752910252" width="244.43135999999998"><g id="textblocktransform"><svg viewBox="0 0 244.43135999999998 88.66717752910252" height="88.66717752910252" width="244.43135999999998" id="textblock"><g><svg viewBox="0 0 244.43135999999998 88.66717752910252" height="88.66717752910252" width="244.43135999999998"><g transform="matrix(1,0,0,1,0,0)"><svg width="244.43135999999998" viewBox="4 -36.54999923706055 133.13999938964844 48.29999923706055" height="88.66717752910252" data-palette-color="#ffffff"><path d="M5.25 0L5.25 0Q4.75 0 4.38-0.28 4-0.55 4-1.05L4-1.05 4-35.5Q4-36.1 4.38-36.33 4.75-36.55 5.25-36.55L5.25-36.55Q5.7-36.55 6.08-36.23 6.45-35.9 6.75-35.43 7.05-34.95 7.25-34.5L7.25-34.5 21.75-5.95 21.75-35.55Q21.75-36.05 22.13-36.3 22.5-36.55 23-36.55L23-36.55Q23.45-36.55 23.85-36.3 24.25-36.05 24.25-35.55L24.25-35.55 24.25-1.05Q24.25-0.55 23.85-0.28 23.45 0 23 0L23 0Q22.4 0 21.95-0.63 21.5-1.25 21.2-1.85L21.2-1.85 6.5-30.65 6.5-1.05Q6.5-0.55 6.1-0.28 5.7 0 5.25 0ZM30.2 11.75L30.2 11.75Q29.75 11.75 29.4 11.45 29.05 11.15 29.05 10.6L29.05 10.6Q29.05 10.15 29.25 9.8 29.45 9.45 29.95 9.45L29.95 9.45Q31.2 9.45 32.27 8.58 33.35 7.7 34.27 6.18 35.2 4.65 35.92 2.85 36.65 1.05 37.2-0.8L37.2-0.8 29.1-22.35Q29-22.6 29-22.75L29-22.75Q29-23.1 29.22-23.35 29.45-23.6 29.77-23.78 30.1-23.95 30.45-23.95L30.45-23.95Q30.75-23.95 31.05-23.78 31.35-23.6 31.4-23.3L31.4-23.3 38.45-4.05 45.3-23.3Q45.45-23.6 45.7-23.78 45.95-23.95 46.25-23.95L46.25-23.95Q46.6-23.95 46.92-23.8 47.25-23.65 47.47-23.38 47.7-23.1 47.7-22.75L47.7-22.75Q47.7-22.5 47.6-22.35L47.6-22.35 39.7-0.8Q39.05 1.15 38.2 3.33 37.35 5.5 36.22 7.4 35.1 9.3 33.62 10.53 32.15 11.75 30.2 11.75ZM53 0L53 0Q52.5 0 52.15-0.33 51.8-0.65 51.8-1.05L51.8-1.05 51.8-22.6Q51.8-23.05 52.15-23.33 52.5-23.6 53-23.6L53-23.6Q53.55-23.6 53.87-23.33 54.2-23.05 54.2-22.6L54.2-22.6 54.2-20.1Q55.05-21.55 56.72-22.73 58.4-23.9 60.9-23.9L60.9-23.9Q63.45-23.9 65.37-22.5 67.3-21.1 68.2-18.9L68.2-18.9Q69.5-21.45 71.57-22.68 73.65-23.9 75.8-23.9L75.8-23.9Q77.95-23.9 79.82-22.85 81.69-21.8 82.9-19.75 84.09-17.7 84.09-14.75L84.09-14.75 84.09-1.05Q84.09-0.65 83.75-0.33 83.4 0 82.84 0L82.84 0Q82.34 0 82-0.33 81.65-0.65 81.65-1.05L81.65-1.05 81.65-14.75Q81.65-17 80.72-18.53 79.8-20.05 78.4-20.83 77-21.6 75.5-21.6L75.5-21.6Q73.9-21.6 72.47-20.78 71.05-19.95 70.12-18.48 69.2-17 69.2-15L69.2-15 69.2-1Q69.2-0.5 68.8-0.25 68.4 0 67.95 0L67.95 0Q67.5 0 67.12-0.25 66.75-0.5 66.75-1L66.75-1 66.75-14.95Q66.75-16.9 65.9-18.38 65.05-19.85 63.7-20.73 62.34-21.6 60.65-21.6L60.65-21.6Q59.09-21.6 57.62-20.78 56.15-19.95 55.2-18.45 54.25-16.95 54.25-14.75L54.25-14.75 54.25-1.05Q54.25-0.65 53.9-0.33 53.55 0 53 0ZM99.94 0.3L99.94 0.3Q96.89 0.3 94.57-0.85 92.24-2 90.89-4.08 89.54-6.15 89.54-8.95L89.54-8.95 89.54-14.9Q89.54-17.35 90.82-19.4 92.09-21.45 94.17-22.68 96.24-23.9 98.74-23.9L98.74-23.9Q101.19-23.9 103.24-22.73 105.29-21.55 106.57-19.53 107.84-17.5 107.84-14.85L107.84-14.85Q107.84-13 107.22-12.18 106.59-11.35 105.64-11.18 104.69-11 103.59-11L103.59-11 91.99-11 91.99-8.9Q91.99-5.7 94.29-3.83 96.59-1.95 100.04-1.95L100.04-1.95Q102.09-1.95 103.19-2.45 104.29-2.95 104.89-3.45 105.49-3.95 105.99-3.95L105.99-3.95Q106.34-3.95 106.59-3.75 106.84-3.55 106.99-3.28 107.14-3 107.14-2.75L107.14-2.75Q107.14-2.25 106.27-1.5 105.39-0.75 103.79-0.23 102.19 0.3 99.94 0.3ZM91.99-15.1L91.99-13.05 102.64-13.05Q104.34-13.05 104.89-13.4 105.44-13.75 105.44-14.85L105.44-14.85Q105.44-16.55 104.62-18.13 103.79-19.7 102.27-20.7 100.74-21.7 98.74-21.7L98.74-21.7Q96.84-21.7 95.32-20.8 93.79-19.9 92.89-18.4 91.99-16.9 91.99-15.1L91.99-15.1ZM114.14 0L114.14 0Q113.64 0 113.29-0.33 112.94-0.65 112.94-1.05L112.94-1.05 112.94-22.6Q112.94-23.05 113.29-23.33 113.64-23.6 114.14-23.6L114.14-23.6Q114.69-23.6 115.04-23.33 115.39-23.05 115.39-22.6L115.39-22.6 115.39-1.05Q115.39-0.65 115.04-0.33 114.69 0 114.14 0ZM114.14-31.05L114.14-31.05Q113.39-31.05 112.82-31.6 112.24-32.15 112.24-32.9L112.24-32.9Q112.24-33.65 112.82-34.15 113.39-34.65 114.14-34.65L114.14-34.65Q114.94-34.65 115.47-34.15 115.99-33.65 115.99-32.9L115.99-32.9Q115.99-32.15 115.47-31.6 114.94-31.05 114.14-31.05ZM127.24 0.3L127.24 0.3Q124.34 0.3 122.34-1.33 120.34-2.95 120.34-6.3L120.34-6.3Q120.34-8.95 121.81-10.4 123.29-11.85 125.91-12.43 128.54-13 131.99-13L131.99-13 134.69-13 134.69-14.3Q134.69-16.05 134.06-17.75 133.44-19.45 132.06-20.55 130.69-21.65 128.39-21.65L128.39-21.65Q126.79-21.65 125.76-21.33 124.74-21 124.11-20.63 123.49-20.25 123.14-20.25L123.14-20.25Q122.64-20.25 122.34-20.73 122.04-21.2 122.04-21.6L122.04-21.6Q122.04-22.2 123.01-22.73 123.99-23.25 125.49-23.58 126.99-23.9 128.49-23.9L128.49-23.9Q131.74-23.9 133.61-22.53 135.49-21.15 136.31-18.98 137.14-16.8 137.14-14.3L137.14-14.3 137.14-1.05Q137.14-0.65 136.81-0.33 136.49 0 135.94 0L135.94 0Q135.44 0 135.09-0.33 134.74-0.65 134.74-1.05L134.74-1.05 134.74-3.5Q133.49-2.05 131.61-0.88 129.74 0.3 127.24 0.3ZM127.59-1.9L127.59-1.9Q129.34-1.9 130.96-2.78 132.59-3.65 133.64-4.93 134.69-6.2 134.69-7.3L134.69-7.3 134.69-11 132.24-11Q129.79-11 127.64-10.73 125.49-10.45 124.14-9.47 122.79-8.5 122.79-6.4L122.79-6.4Q122.79-4.05 124.19-2.98 125.59-1.9 127.59-1.9Z" opacity="1" transform="matrix(1,0,0,1,0,0)" fill="#ffffff" class="undefined-text-0" data-fill-palette-color="primary" id="text-0"></path></svg></g></svg></g></svg></g></svg></g></svg></g></svg></g></svg></g><g><path d="M245.816 0c68.262 0 123.6 55.338 123.6 123.6 0 68.262-55.338 123.6-123.6 123.6-48.583 0-90.619-28.03-110.819-68.8h4.481c19.875 38.489 60.033 64.802 106.338 64.802 66.054 0 119.602-53.548 119.602-119.602 0-66.054-53.548-119.602-119.602-119.602-46.304 0-86.462 26.313-106.338 64.802l-4.481 0c20.2-40.77 62.236-68.8 110.819-68.8z" fill="#6de233" stroke="transparent" data-fill-palette-color="tertiary"></path></g></svg></g><defs></defs></svg><rect width="395.52" height="247.2" fill="none" stroke="none" visibility="hidden"></rect></g></svg></g></svg>